{"title":"I.Taket.Lyser.StjÃƒÂ¤rnorna.2009.Swe.Dan.Nor.Eng_SUB.DVDRip.XviD-Z","uid":5753417,"size":749023967,"categoryP":"video","categoryS":"movies","magnet":"?xt=urn:btih:889078cdbc8db3938c80e3168f0f811b17a2baee&amp;dn=I.Taket.Lyser.Stj%C3%83%C2%A4rnorna.2009.Swe.Dan.Nor.Eng_SUB.DVDRip.XviD-Z&amp;tr=udp%3A%2F%2Ftracker.openbittorrent.com%3A80&amp;tr=udp%3A%2F%2Fopen.demonii.com%3A1337&amp;tr=udp%3A%2F%2Ftracker.coppersurfer.tk%3A6969&amp;tr=udp%3A%2F%2Fexodus.desync.com%3A6969","seeders":1,"leechers":0,"uploader":"Zen_Bud","files":-1,"time":1281476430,"description":"General\n\nComplete name                    : I Taket Lyser StjÃƒÂ¤rnorna.avi\nFormat                           : AVI\nFile size                        : 705 MiB\nDuration                         : 1h 25mn\nOverall bit rate                 : 1 149 Kbps\n\nVideo\n\nFormat                           : MPEG-4 Visual\nCodec ID/Hint                    : XviD\nDuration                         : 1h 25mn\nBit rate                         : 1 024 Kbps\nWidth                            : 720 pixels\nHeight                           : 568 pixels\nDisplay aspect ratio             : 16:9\nStream size                      : 628 MiB (89%)\nWriting library                  : XviD 1.1.2 (UTC 2006-11-01)\n\nAudio\n\nFormat                           : MPEG Audio\nCodec ID/Hint                    : MP3\nDuration                         : 1h 25mn\nBit rate                         : 112 Kbps\nChannel(s)                       : 2 channels\nSampling rate                    : 48.0 KHz\nStream size                      : 68.7 MiB (10%)\nWriting library                  : LAME3.98\n\n\n\nText             : I taket lyser stjÃƒÆ’Ã‚Â¤rnorna_Track3.SWE.idx\n\nText             : I taket lyser stjÃƒÆ’Ã‚Â¤rnorna_Track3.SWE.sub\n\n\n\nText             : I taket lyser stjÃƒÆ’Ã‚Â¤rnorna_Track4.NOR.idx\n\nText             : I taket lyser stjÃƒÆ’Ã‚Â¤rnorna_Track4.NOR.sub\n\n\n\nText             : I taket lyser stjÃƒÆ’Ã‚Â¤rnorna_Track5.DAN.idx\n\nText             : I taket lyser stjÃƒÆ’Ã‚Â¤rnorna_Track5.DAN.sub\n\n\n\nText             : I taket lyser stjÃƒÆ’Ã‚Â¤rnorna_Track6.ENG.idx\n\nText             : I taket lyser stjÃƒÆ’Ã‚Â¤rnorna_Track6.ENG.sub\n\n\n\n\n","torrent":{"xt":"urn:btih:889078cdbc8db3938c80e3168f0f811b17a2baee","amp;dn":"I.Taket.Lyser.Stj%C3%83%C2%A4rnorna.2009.Swe.Dan.Nor.Eng_SUB.DVDRip.XviD-Z","amp;tr":["udp%3A%2F%2Ftracker.openbittorrent.com%3A80","udp%3A%2F%2Fopen.demonii.com%3A1337","udp%3A%2F%2Ftracker.coppersurfer.tk%3A6969","udp%3A%2F%2Fexodus.desync.com%3A6969"],"infoHash":"889078cdbc8db3938c80e3168f0f811b17a2baee","infoHashBuffer":{"type":"Buffer","data":[136,144,120,205,188,141,179,147,140,128,227,22,143,15,129,27,23,162,186,238]},"announce":[],"urlList":[]}}